<svg xmlns="http://www.w3.org/2000/svg" width="1100" height="520" viewBox="0 0 1100 520" role="img" aria-labelledby="title desc">
<title id="title">온디바이스 도구 호출 의사결정 루프</title><desc id="desc">센서와 앱 입력이 초소형 모델, 문법 제약, 신뢰도 게이트를 거쳐 로컬 실행 또는 클라우드 에스컬레이션으로 나뉘는 구조</desc>
<rect width="1100" height="520" rx="28" fill="#0b1220"/>
<defs><marker id="arrow" markerWidth="12" markerHeight="12" refX="10" refY="6" orient="auto"><path d="M2,2 L10,6 L2,10" fill="#67e8f9"/></marker></defs>
<g font-family="Arial, Helvetica, sans-serif" font-weight="700" text-anchor="middle">
<rect x="55" y="190" width="170" height="95" rx="22" fill="#1e293b" stroke="#38bdf8" stroke-width="3"/><text x="140" y="232" fill="#e0f2fe" font-size="22">입력</text><text x="140" y="260" fill="#93c5fd" font-size="16">센서·음성·앱</text>
<rect x="310" y="155" width="215" height="165" rx="26" fill="#123b4a" stroke="#5eead4" stroke-width="3"/><text x="417" y="205" fill="#f0fdfa" font-size="24">Needle 2</text><text x="417" y="238" fill="#99f6e4" font-size="17">14MB engine</text><text x="417" y="266" fill="#99f6e4" font-size="17">256-token window</text>
<rect x="610" y="95" width="205" height="105" rx="22" fill="#1f2937" stroke="#a78bfa" stroke-width="3"/><text x="712" y="138" fill="#ede9fe" font-size="22">문법 제약</text><text x="712" y="166" fill="#ddd6fe" font-size="16">JSON schema subset</text>
<rect x="610" y="285" width="205" height="105" rx="22" fill="#1f2937" stroke="#fbbf24" stroke-width="3"/><text x="712" y="328" fill="#fffbeb" font-size="22">신뢰도 게이트</text><text x="712" y="356" fill="#fde68a" font-size="16">threshold policy</text>
<rect x="895" y="92" width="155" height="95" rx="22" fill="#064e3b"/><text x="972" y="134" fill="#ecfdf5" font-size="22">로컬 실행</text><text x="972" y="162" fill="#a7f3d0" font-size="15">tool/action</text>
<rect x="895" y="305" width="155" height="95" rx="22" fill="#7f1d1d"/><text x="972" y="347" fill="#fef2f2" font-size="22">에스컬레이션</text><text x="972" y="375" fill="#fecaca" font-size="15">cloud/operator</text>
</g>
<g stroke="#67e8f9" stroke-width="5" fill="none" marker-end="url(#arrow)">
<path d="M225 238 H300"/><path d="M525 214 C565 190 575 160 600 148"/><path d="M525 262 C565 286 575 322 600 338"/><path d="M815 148 H884"/><path d="M815 338 H884"/>
</g>
</svg>
