<svg xmlns="http://www.w3.org/2000/svg" width="1200" height="630" viewBox="0 0 1200 630" role="img" aria-labelledby="title desc">
<title id="title">drawDB and database schema design governance</title>
<desc id="desc">Browser-based ERD editor connects database schema design, SQL import/export, review, and governance workflows.</desc>
<defs><linearGradient id="g" x1="0" y1="0" x2="1" y2="1"><stop stop-color="#10243f"/><stop offset="0.55" stop-color="#155e75"/><stop offset="1" stop-color="#0f172a"/></linearGradient><filter id="shadow" x="-20%" y="-20%" width="140%" height="140%"><feDropShadow dx="0" dy="14" stdDeviation="18" flood-color="#020617" flood-opacity="0.35"/></filter></defs>
<rect width="1200" height="630" fill="url(#g)"/>
<circle cx="1030" cy="110" r="180" fill="#22d3ee" opacity="0.12"/><circle cx="160" cy="520" r="220" fill="#38bdf8" opacity="0.10"/>
<g filter="url(#shadow)">
<rect x="120" y="115" width="960" height="390" rx="28" fill="#f8fafc" opacity="0.96"/>
<rect x="155" y="155" width="220" height="145" rx="18" fill="#e0f2fe" stroke="#0284c7" stroke-width="3"/><text x="185" y="195" font-family="Arial, sans-serif" font-size="28" font-weight="700" fill="#0f172a">orders</text><line x1="185" y1="220" x2="345" y2="220" stroke="#0284c7" stroke-width="2"/><text x="185" y="252" font-family="Arial" font-size="20" fill="#334155">id · user_id</text><text x="185" y="280" font-family="Arial" font-size="20" fill="#334155">status · total</text>
<rect x="495" y="110" width="230" height="170" rx="18" fill="#dcfce7" stroke="#16a34a" stroke-width="3"/><text x="525" y="150" font-family="Arial" font-size="28" font-weight="700" fill="#0f172a">users</text><line x1="525" y1="175" x2="695" y2="175" stroke="#16a34a" stroke-width="2"/><text x="525" y="207" font-family="Arial" font-size="20" fill="#334155">id · email</text><text x="525" y="235" font-family="Arial" font-size="20" fill="#334155">role · region</text>
<rect x="805" y="225" width="220" height="150" rx="18" fill="#fef3c7" stroke="#d97706" stroke-width="3"/><text x="835" y="265" font-family="Arial" font-size="28" font-weight="700" fill="#0f172a">payments</text><line x1="835" y1="290" x2="995" y2="290" stroke="#d97706" stroke-width="2"/><text x="835" y="322" font-family="Arial" font-size="20" fill="#334155">order_id</text><text x="835" y="350" font-family="Arial" font-size="20" fill="#334155">provider</text>
<path d="M375 205 C430 185 445 175 495 175" fill="none" stroke="#0f172a" stroke-width="5" stroke-linecap="round"/><path d="M375 260 C560 380 715 350 805 305" fill="none" stroke="#0f172a" stroke-width="5" stroke-linecap="round"/><path d="M725 205 C760 215 775 235 805 255" fill="none" stroke="#0f172a" stroke-width="5" stroke-linecap="round"/>
</g>
<text x="120" y="560" font-family="Arial, sans-serif" font-size="42" font-weight="800" fill="#ffffff">drawDB와 데이터베이스 스키마 설계 거버넌스</text>
<text x="120" y="600" font-family="Arial, sans-serif" font-size="24" fill="#bae6fd">GitHub Trending으로 보는 브라우저 ERD·SQL 생성 도구의 실무 의미</text>
</svg>