<svg xmlns="http://www.w3.org/2000/svg" width="1200" height="720" viewBox="0 0 1200 720" role="img" aria-labelledby="title desc">
  <title id="title">AI 보안 감사 아키텍처</title><desc id="desc">대상 소스가 읽기 전용 샌드박스에서 조사되고 커버리지 원장, hunter, verifier, findings schema와 보고서로 이어지는 구조</desc>
  <defs><marker id="arrow" markerWidth="10" markerHeight="10" refX="8" refY="3" orient="auto"><path d="M0,0 L0,6 L9,3 z" fill="#64748b"/></marker><linearGradient id="head" x1="0" y1="0" x2="1" y2="0"><stop stop-color="#0f766e"/><stop offset="1" stop-color="#0369a1"/></linearGradient></defs>
  <rect width="1200" height="720" rx="28" fill="#f8fafc"/>
  <rect x="38" y="32" width="1124" height="80" rx="18" fill="url(#head)"/><text x="74" y="82" font-family="Arial, sans-serif" font-size="30" font-weight="800" fill="white">발견과 검증을 분리하는 6단계 감사 상태 머신</text>
  <g font-family="Arial, sans-serif">
    <rect x="55" y="155" width="220" height="190" rx="18" fill="#fff7ed" stroke="#fb923c" stroke-width="3"/><text x="165" y="197" text-anchor="middle" font-size="21" font-weight="800" fill="#9a3412">READ-ONLY TARGET</text><text x="165" y="231" text-anchor="middle" font-size="17" fill="#7c2d12">immutable source ref</text><rect x="82" y="258" width="166" height="58" rx="12" fill="#ffedd5"/><text x="165" y="282" text-anchor="middle" font-size="15" fill="#9a3412">OS sandbox</text><text x="165" y="304" text-anchor="middle" font-size="14" fill="#9a3412">no egress · bounded write</text>
    <path d="M275 250 H335" stroke="#64748b" stroke-width="3" marker-end="url(#arrow)"/>
    <rect x="340" y="145" width="270" height="210" rx="18" fill="#ecfeff" stroke="#0891b2" stroke-width="3"/><text x="475" y="187" text-anchor="middle" font-size="22" font-weight="800" fill="#155e75">1. RECONNAISSANCE</text><text x="475" y="222" text-anchor="middle" font-size="16" fill="#164e63">architecture.md</text><rect x="374" y="247" width="202" height="72" rx="12" fill="#cffafe"/><text x="475" y="275" text-anchor="middle" font-size="17" font-weight="700" fill="#155e75">coverage-ledger.json</text><text x="475" y="299" text-anchor="middle" font-size="14" fill="#155e75">surface × boundary × class</text>
    <path d="M610 250 H670" stroke="#64748b" stroke-width="3" marker-end="url(#arrow)"/>
    <rect x="675" y="145" width="470" height="210" rx="18" fill="#eef2ff" stroke="#6366f1" stroke-width="3"/><text x="710" y="185" font-size="21" font-weight="800" fill="#3730a3">2. COVERAGE-LED HUNTING</text><g fill="#e0e7ff" stroke="#818cf8" stroke-width="2"><rect x="712" y="211" width="120" height="78" rx="12"/><rect x="850" y="211" width="120" height="78" rx="12"/><rect x="988" y="211" width="120" height="78" rx="12"/></g><g text-anchor="middle" font-size="15" fill="#312e81"><text x="772" y="244">hunter A</text><text x="772" y="268">isolated</text><text x="910" y="244">hunter B</text><text x="910" y="268">isolated</text><text x="1048" y="244">critic</text><text x="1048" y="268">find gaps</text></g><text x="910" y="326" text-anchor="middle" font-size="15" fill="#4338ca">candidate fingerprints · no self-approval</text>
    <path d="M930 355 V409" stroke="#64748b" stroke-width="3" marker-end="url(#arrow)"/>
    <rect x="675" y="415" width="470" height="220" rx="18" fill="#f0fdf4" stroke="#22c55e" stroke-width="3"/><text x="710" y="457" font-size="21" font-weight="800" fill="#166534">3–5. ADVERSARIAL VALIDATION</text><rect x="712" y="482" width="170" height="88" rx="12" fill="#dcfce7"/><text x="797" y="514" text-anchor="middle" font-size="16" font-weight="700" fill="#166534">fresh verifier</text><text x="797" y="539" text-anchor="middle" font-size="14" fill="#166534">try to disprove</text><text x="797" y="560" text-anchor="middle" font-size="14" fill="#166534">original source</text><path d="M882 526 H935" stroke="#64748b" stroke-width="3" marker-end="url(#arrow)"/><rect x="940" y="478" width="168" height="100" rx="12" fill="#dcfce7"/><text x="1024" y="507" text-anchor="middle" font-size="15" font-weight="700" fill="#166534">findings.json</text><text x="1024" y="532" text-anchor="middle" font-size="14" fill="#166534">schema validator</text><text x="1024" y="555" text-anchor="middle" font-size="14" fill="#166534">record re-check</text><text x="910" y="610" text-anchor="middle" font-size="14" fill="#166534">confirmed · needs_validation · rejected</text>
    <path d="M675 525 H612" stroke="#64748b" stroke-width="3" marker-end="url(#arrow)"/>
    <rect x="340" y="420" width="270" height="205" rx="18" fill="#fff" stroke="#0f766e" stroke-width="3"/><text x="475" y="461" text-anchor="middle" font-size="21" font-weight="800" fill="#115e59">6. REPORTING</text><text x="475" y="500" text-anchor="middle" font-size="16" fill="#134e4a">REPORT.md</text><text x="475" y="528" text-anchor="middle" font-size="16" fill="#134e4a">FINDINGS-DETAIL.md</text><text x="475" y="556" text-anchor="middle" font-size="16" fill="#134e4a">NEEDS-VALIDATION.md</text><rect x="374" y="580" width="202" height="27" rx="8" fill="#ccfbf1"/><text x="475" y="599" text-anchor="middle" font-size="13" fill="#115e59">derived from verified records</text>
    <rect x="55" y="420" width="220" height="205" rx="18" fill="#fef2f2" stroke="#ef4444" stroke-width="3"/><text x="165" y="460" text-anchor="middle" font-size="20" font-weight="800" fill="#991b1b">HARD BOUNDARY</text><text x="165" y="497" text-anchor="middle" font-size="15" fill="#7f1d1d">no sandbox?</text><text x="165" y="524" text-anchor="middle" font-size="15" fill="#7f1d1d">do not execute</text><text x="165" y="565" text-anchor="middle" font-size="15" font-weight="700" fill="#991b1b">keep as</text><text x="165" y="592" text-anchor="middle" font-size="17" font-weight="800" fill="#991b1b">needs_validation</text>
  </g>
</svg>
